<?xml version="1.0" encoding="UTF-8"?>
<svg xmlns="http://www.w3.org/2000/svg" xmlns:xlink="http://www.w3.org/1999/xlink" width="22px" height="22px" viewBox="0 0 22 22" version="1.1">
<g id="surface1">
<path style=" stroke:none;fill-rule:evenodd;fill:rgb(0%,0%,0%);fill-opacity:1;" d="M 10.957031 22 L 10.96875 22 Z M 11.035156 22 L 11.03125 22 L 11.042969 22 Z M 10.925781 22 L 10.933594 22 Z M 11.070312 22 L 11.066406 22 L 11.074219 22 Z M 10.890625 22 L 10.898438 22 Z M 11.105469 22 L 11.101562 22 L 11.109375 22 Z M 11.140625 22 L 11.148438 22 Z M 10.851562 22 L 10.859375 22 Z M 11.175781 22 L 11.171875 22 L 11.183594 22 Z M 10.816406 22 L 10.828125 22 Z M 11.214844 21.996094 L 11.207031 22 Z M 10.785156 21.996094 L 10.792969 22 Z M 10.742188 21.996094 L 10.753906 21.996094 Z M 11.25 21.996094 L 11.246094 21.996094 L 11.257812 21.996094 Z M 10.707031 21.996094 L 10.722656 21.996094 Z M 11.285156 21.996094 L 11.277344 21.996094 L 11.292969 21.996094 Z M 11.320312 21.996094 L 11.308594 21.996094 L 11.324219 21.996094 Z M 10.675781 21.996094 L 10.691406 21.996094 Z M 10.644531 21.996094 L 10.65625 21.996094 L 10.644531 21.996094 L 10.636719 21.992188 Z M 11.355469 21.996094 L 11.34375 21.996094 L 11.355469 21.996094 L 11.363281 21.992188 Z M 11.390625 21.992188 L 11.386719 21.992188 L 11.398438 21.992188 Z M 10.601562 21.992188 L 10.613281 21.992188 Z M 10.566406 21.992188 L 10.582031 21.992188 Z M 11.425781 21.992188 L 11.417969 21.992188 L 11.433594 21.992188 Z M 10.535156 21.992188 L 10.550781 21.992188 Z M 11.460938 21.992188 L 11.449219 21.992188 L 11.464844 21.992188 Z M 10.492188 21.988281 L 10.507812 21.988281 Z M 11.496094 21.988281 L 11.492188 21.988281 L 11.507812 21.988281 Z M 10.460938 21.988281 L 10.476562 21.988281 Z M 11.53125 21.988281 L 11.523438 21.988281 L 11.539062 21.988281 Z M 10.429688 21.984375 L 10.445312 21.984375 Z M 11.566406 21.984375 L 11.554688 21.984375 L 11.570312 21.984375 Z M 11.601562 21.984375 L 11.585938 21.984375 L 11.617188 21.984375 Z M 10.402344 21.984375 L 10.414062 21.984375 L 10.382812 21.984375 Z M 11.636719 21.980469 L 11.628906 21.980469 L 11.644531 21.980469 Z M 10.355469 21.980469 L 10.371094 21.980469 Z M 10.324219 21.980469 L 10.339844 21.980469 Z M 11.671875 21.980469 L 11.660156 21.980469 L 11.675781 21.980469 Z M 10.292969 21.976562 L 10.308594 21.980469 L 10.292969 21.976562 L 10.277344 21.976562 Z M 11.707031 21.976562 L 11.691406 21.980469 L 11.707031 21.976562 L 11.722656 21.976562 Z M 11.742188 21.976562 L 11.734375 21.976562 L 11.753906 21.972656 Z M 10.246094 21.972656 L 10.265625 21.976562 L 10.257812 21.976562 Z M 10.214844 21.972656 L 10.234375 21.972656 Z M 11.777344 21.972656 L 11.765625 21.972656 L 11.785156 21.972656 Z M 10.1875 21.96875 L 10.199219 21.972656 Z M 11.8125 21.96875 L 11.800781 21.972656 Z M 10.144531 21.96875 L 10.15625 21.96875 Z M 11.847656 21.96875 L 11.84375 21.96875 L 11.855469 21.96875 Z M 11.878906 21.964844 L 11.875 21.964844 L 11.886719 21.964844 Z M 10.113281 21.964844 L 10.125 21.964844 Z M 10.082031 21.960938 L 10.09375 21.964844 L 10.085938 21.960938 Z M 11.914062 21.960938 L 11.90625 21.964844 L 11.917969 21.960938 Z M 10.046875 21.960938 L 10.050781 21.960938 Z M 11.949219 21.960938 L 11.953125 21.960938 Z M 11.984375 21.957031 L 11.980469 21.957031 L 11.988281 21.957031 Z M 10.011719 21.957031 L 10.019531 21.957031 Z M 9.976562 21.953125 L 9.984375 21.953125 Z M 12.019531 21.953125 L 12.015625 21.953125 L 12.023438 21.953125 Z M 9.28125 21.867188 C 4.023438 21.039062 0 16.488281 0 11 C 0 4.929688 4.929688 0 11 0 C 17.070312 0 22 4.929688 22 11 C 22 16.488281 17.976562 21.039062 12.71875 21.867188 L 12.71875 14.179688 L 15.28125 14.179688 L 15.769531 11 L 12.71875 11 L 12.71875 8.9375 C 12.71875 8.066406 13.144531 7.21875 14.511719 7.21875 L 15.898438 7.21875 L 15.898438 4.511719 C 15.898438 4.511719 14.640625 4.296875 13.4375 4.296875 C 10.921875 4.296875 9.28125 5.820312 9.28125 8.578125 L 9.28125 11 L 6.488281 11 L 6.488281 14.179688 L 9.28125 14.179688 Z M 9.28125 21.867188 "/>
</g>
</svg>
