<?xml version="1.0" encoding="UTF-8"?>
<svg xmlns="http://www.w3.org/2000/svg" xmlns:xlink="http://www.w3.org/1999/xlink" width="22px" height="22px" viewBox="0 0 22 22" version="1.1">
<g id="surface1">
<path style=" stroke:none;fill-rule:evenodd;fill:rgb(0%,0%,0%);fill-opacity:1;" d="M 11 0 C 17.070312 0 22 4.929688 22 11 C 22 17.070312 17.070312 22 11 22 C 4.929688 22 0 17.070312 0 11 C 0 4.929688 4.929688 0 11 0 Z M 11 4.125 C 9.132812 4.125 8.898438 4.132812 8.164062 4.167969 C 7.433594 4.199219 6.933594 4.316406 6.496094 4.484375 C 6.042969 4.660156 5.660156 4.898438 5.277344 5.277344 C 4.898438 5.660156 4.660156 6.042969 4.484375 6.496094 C 4.316406 6.933594 4.199219 7.433594 4.167969 8.164062 C 4.132812 8.898438 4.125 9.132812 4.125 11 C 4.125 12.867188 4.132812 13.101562 4.167969 13.835938 C 4.199219 14.566406 4.316406 15.066406 4.484375 15.503906 C 4.660156 15.957031 4.898438 16.339844 5.277344 16.722656 C 5.660156 17.101562 6.042969 17.339844 6.496094 17.515625 C 6.933594 17.683594 7.433594 17.800781 8.164062 17.832031 C 8.898438 17.867188 9.132812 17.875 11 17.875 C 12.867188 17.875 13.101562 17.867188 13.835938 17.832031 C 14.566406 17.800781 15.066406 17.683594 15.503906 17.515625 C 15.957031 17.339844 16.339844 17.101562 16.722656 16.722656 C 17.101562 16.339844 17.339844 15.957031 17.515625 15.503906 C 17.683594 15.066406 17.800781 14.566406 17.832031 13.835938 C 17.867188 13.101562 17.875 12.867188 17.875 11 C 17.875 9.132812 17.867188 8.898438 17.832031 8.164062 C 17.800781 7.433594 17.683594 6.933594 17.515625 6.496094 C 17.339844 6.042969 17.101562 5.660156 16.722656 5.277344 C 16.339844 4.898438 15.957031 4.660156 15.503906 4.484375 C 15.066406 4.316406 14.566406 4.199219 13.835938 4.167969 C 13.101562 4.132812 12.867188 4.125 11 4.125 Z M 11 5.363281 C 12.835938 5.363281 13.054688 5.371094 13.777344 5.402344 C 14.449219 5.433594 14.8125 5.546875 15.054688 5.640625 C 15.375 5.765625 15.605469 5.914062 15.84375 6.15625 C 16.085938 6.394531 16.234375 6.625 16.359375 6.945312 C 16.453125 7.1875 16.566406 7.550781 16.597656 8.222656 C 16.628906 8.945312 16.636719 9.164062 16.636719 11 C 16.636719 12.835938 16.628906 13.054688 16.597656 13.777344 C 16.566406 14.449219 16.453125 14.8125 16.359375 15.054688 C 16.234375 15.375 16.085938 15.605469 15.84375 15.84375 C 15.605469 16.085938 15.375 16.234375 15.054688 16.359375 C 14.8125 16.453125 14.449219 16.566406 13.777344 16.597656 C 13.054688 16.628906 12.835938 16.636719 11 16.636719 C 9.164062 16.636719 8.945312 16.628906 8.222656 16.597656 C 7.550781 16.566406 7.1875 16.453125 6.945312 16.359375 C 6.625 16.234375 6.394531 16.085938 6.15625 15.84375 C 5.914062 15.605469 5.765625 15.375 5.640625 15.054688 C 5.546875 14.8125 5.433594 14.449219 5.402344 13.777344 C 5.371094 13.054688 5.363281 12.835938 5.363281 11 C 5.363281 9.164062 5.371094 8.945312 5.402344 8.222656 C 5.433594 7.550781 5.546875 7.1875 5.640625 6.945312 C 5.765625 6.625 5.914062 6.394531 6.15625 6.15625 C 6.394531 5.914062 6.625 5.765625 6.945312 5.640625 C 7.1875 5.546875 7.550781 5.433594 8.222656 5.402344 C 8.945312 5.371094 9.164062 5.363281 11 5.363281 Z M 11 7.46875 C 9.050781 7.46875 7.46875 9.050781 7.46875 11 C 7.46875 12.949219 9.050781 14.53125 11 14.53125 C 12.949219 14.53125 14.53125 12.949219 14.53125 11 C 14.53125 9.050781 12.949219 7.46875 11 7.46875 Z M 11 13.292969 C 9.734375 13.292969 8.707031 12.265625 8.707031 11 C 8.707031 9.734375 9.734375 8.707031 11 8.707031 C 12.265625 8.707031 13.292969 9.734375 13.292969 11 C 13.292969 12.265625 12.265625 13.292969 11 13.292969 Z M 15.496094 7.332031 C 15.496094 7.785156 15.125 8.15625 14.667969 8.15625 C 14.214844 8.15625 13.84375 7.785156 13.84375 7.332031 C 13.84375 6.875 14.214844 6.503906 14.667969 6.503906 C 15.125 6.503906 15.496094 6.875 15.496094 7.332031 Z M 15.496094 7.332031 "/>
</g>
</svg>
