<?xml version="1.0" encoding="UTF-8"?>
<svg xmlns="http://www.w3.org/2000/svg" xmlns:xlink="http://www.w3.org/1999/xlink" width="22px" height="22px" viewBox="0 0 22 22" version="1.1">
<g id="surface1">
<path style=" stroke:none;fill-rule:evenodd;fill:rgb(0%,0%,0%);fill-opacity:1;" d="M 11 0 C 17.070312 0 22 4.929688 22 11 C 22 17.070312 17.070312 22 11 22 C 4.929688 22 0 17.070312 0 11 C 0 4.929688 4.929688 0 11 0 Z M 11 4.503906 C 7.1875 4.503906 4.234375 7.296875 4.234375 11.066406 C 4.234375 13.039062 5.042969 14.746094 6.359375 15.921875 C 6.46875 16.023438 6.535156 16.160156 6.539062 16.308594 L 6.578125 17.511719 C 6.589844 17.898438 6.984375 18.144531 7.335938 17.992188 L 8.679688 17.398438 C 8.792969 17.347656 8.921875 17.339844 9.039062 17.371094 C 9.65625 17.542969 10.316406 17.632812 11 17.632812 C 14.8125 17.632812 17.765625 14.839844 17.765625 11.066406 C 17.765625 7.296875 14.8125 4.503906 11 4.503906 Z M 6.9375 12.988281 L 8.925781 9.832031 C 9.242188 9.332031 9.917969 9.207031 10.394531 9.5625 L 11.972656 10.75 C 12.121094 10.859375 12.316406 10.855469 12.460938 10.746094 L 14.597656 9.128906 C 14.882812 8.910156 15.253906 9.253906 15.0625 9.554688 L 13.078125 12.707031 C 12.761719 13.207031 12.082031 13.332031 11.609375 12.976562 L 10.027344 11.792969 C 9.882812 11.683594 9.683594 11.683594 9.539062 11.792969 L 7.402344 13.414062 C 7.117188 13.632812 6.746094 13.289062 6.9375 12.988281 Z M 6.9375 12.988281 "/>
</g>
</svg>
