<?xml version="1.0" encoding="UTF-8"?>
<svg xmlns="http://www.w3.org/2000/svg" xmlns:xlink="http://www.w3.org/1999/xlink" width="22px" height="22px" viewBox="0 0 22 22" version="1.1">
<g id="surface1">
<path style=" stroke:none;fill-rule:nonzero;fill:rgb(0%,0%,0%);fill-opacity:1;" d="M 20.898438 2.179688 C 20.613281 1.9375 20.152344 1.914062 19.359375 2.15625 C 18.808594 2.332031 13.925781 4.179688 9.613281 5.960938 C 5.742188 7.566406 2.597656 8.976562 2.222656 9.152344 C 1.804688 9.285156 0.902344 9.679688 0.859375 10.296875 C 0.835938 10.691406 1.164062 11.042969 1.804688 11.328125 C 2.484375 11.683594 5.5 12.695312 6.136719 12.890625 C 6.359375 13.640625 7.65625 18.019531 7.722656 18.28125 C 7.808594 18.679688 8.074219 18.898438 8.207031 18.984375 C 8.226562 19.007812 8.273438 19.050781 8.316406 19.074219 C 8.382812 19.117188 8.46875 19.140625 8.578125 19.140625 C 8.734375 19.140625 8.910156 19.074219 9.0625 18.964844 C 9.878906 18.304688 11.285156 16.828125 11.683594 16.410156 C 13.421875 17.777344 15.3125 19.292969 15.488281 19.46875 C 15.488281 19.46875 15.511719 19.492188 15.511719 19.492188 C 15.929688 19.84375 16.367188 20.042969 16.765625 20.042969 C 16.894531 20.042969 17.027344 20.019531 17.160156 19.976562 C 17.621094 19.820312 17.953125 19.382812 18.0625 18.789062 C 18.0625 18.765625 18.085938 18.679688 18.128906 18.523438 C 18.875 15.269531 19.46875 12.40625 19.953125 10.011719 C 20.414062 7.65625 20.789062 5.347656 21.011719 4.113281 C 21.054688 3.804688 21.097656 3.5625 21.121094 3.410156 C 21.1875 2.96875 21.230469 2.464844 20.898438 2.179688 Z M 6.601562 12.824219 L 17.09375 5.875 C 17.117188 5.851562 17.160156 5.828125 17.183594 5.808594 C 17.203125 5.808594 17.203125 5.785156 17.226562 5.785156 C 17.246094 5.785156 17.246094 5.785156 17.269531 5.765625 C 17.246094 5.785156 17.226562 5.851562 17.183594 5.894531 L 14.519531 8.382812 C 12.671875 10.074219 10.253906 12.296875 8.644531 13.75 C 8.644531 13.75 8.644531 13.75 8.644531 13.773438 C 8.644531 13.773438 8.625 13.792969 8.625 13.792969 C 8.625 13.792969 8.625 13.816406 8.601562 13.816406 C 8.601562 13.839844 8.601562 13.839844 8.578125 13.859375 C 8.578125 13.859375 8.578125 13.882812 8.578125 13.882812 C 8.578125 13.882812 8.578125 13.882812 8.578125 13.902344 C 8.46875 15.136719 8.273438 17.246094 8.183594 18.195312 C 8.183594 18.195312 8.183594 18.195312 8.183594 18.171875 C 8.097656 17.90625 6.863281 13.707031 6.601562 12.824219 Z M 6.601562 12.824219 "/>
</g>
</svg>
