<svg width="25" height="14" viewBox="0 0 25 14" fill="none" xmlns="http://www.w3.org/2000/svg">
<path fill-rule="evenodd" clip-rule="evenodd" d="M19.5221 14.0002C19.4851 14.0002 19.4481 14.0002 19.4101 14.0002C18.1991 13.7972 17.3751 12.9262 16.6711 12.1172C16.2741 11.6622 15.6641 10.6312 14.9381 10.7482C13.9071 10.9202 14.4171 12.7172 13.9881 13.4862C13.6391 14.1092 12.1571 13.9962 11.1351 13.8842C7.90912 13.5362 6.26112 11.7802 4.81612 9.89416C3.27212 7.87816 2.07012 5.76916 0.958117 3.45316C0.599117 2.70316 0.120117 1.87316 0.120117 0.945156C0.642117 0.509156 1.49512 0.659156 2.35612 0.659156C3.08612 0.659156 4.22612 0.496156 4.76012 0.773156C5.07712 0.937156 5.39812 1.81116 5.65512 2.37016C6.24312 3.65016 6.78512 4.57016 7.50012 5.61916C7.81012 6.07416 8.28512 6.93016 8.84212 6.81616C9.38312 6.70516 9.43412 5.34716 9.45812 4.47816C9.48412 3.49216 9.45612 2.26616 9.17812 1.74116C8.91512 1.24716 8.43412 1.23816 7.94812 0.944156C8.35312 0.113156 9.46312 0.0311563 10.8001 0.0311563C11.9251 0.0311563 13.4931 -0.0968437 13.9321 0.658156C14.3781 1.42616 14.0731 2.81216 14.0441 3.85116C14.0121 5.01916 13.8141 6.22216 14.6031 6.75716C15.2101 6.69116 15.5381 6.08916 15.8891 5.61816C16.6601 4.58716 17.1381 3.69616 17.7351 2.36816C17.9801 1.82316 18.2431 0.886156 18.6861 0.715156C19.3611 0.454156 20.4371 0.657156 21.4251 0.657156C22.2351 0.657156 23.6821 0.429156 23.9421 0.999156C24.1581 1.47216 23.5221 2.66716 23.3271 2.99416C22.5781 4.24616 21.8441 5.04316 21.0341 6.13116C20.7121 6.56516 20.0451 7.26016 20.0841 7.95316C20.1141 8.48216 20.6331 8.88716 21.0341 9.26516C21.9031 10.0872 22.5121 10.6872 23.2161 11.6032C23.4811 11.9492 24.0531 12.6952 23.9981 13.1422C23.8261 14.5372 20.6071 13.6642 19.5221 14.0002Z" fill="#333333"/>
</svg>
